<svg id="Layer_1" data-name="Layer 1" xmlns="http://www.w3.org/2000/svg" viewBox="0 0 240 240"><defs><style>.cls-1{fill:#ccc;}.cls-2{fill:#392973;}</style></defs><title>articles-cover-01</title><rect class="cls-1" width="240" height="240"/><path class="cls-2" d="M166.57,150H73.43a8.07,8.07,0,0,1-8.06-8.06V38.06A8.07,8.07,0,0,1,73.43,30h93.14a8.07,8.07,0,0,1,8.06,8.06V141.94A8.07,8.07,0,0,1,166.57,150ZM73.43,35.37a2.69,2.69,0,0,0-2.68,2.69V141.94a2.69,2.69,0,0,0,2.68,2.69h93.14a2.69,2.69,0,0,0,2.68-2.69V38.06a2.69,2.69,0,0,0-2.68-2.69Z"/><rect class="cls-2" x="79.7" y="44.33" width="80.6" height="19.7"/><rect class="cls-2" x="79.7" y="70.3" width="35.82" height="30.45"/><rect class="cls-2" x="79.7" y="120.45" width="16.12" height="16.12"/><rect class="cls-2" x="99.4" y="120.45" width="16.12" height="16.12"/><rect class="cls-2" x="124.48" y="120.45" width="16.12" height="16.12"/><rect class="cls-2" x="144.18" y="120.45" width="16.12" height="16.12"/><rect class="cls-2" x="79.7" y="106.12" width="35.82" height="7.16"/><rect class="cls-2" x="124.48" y="106.12" width="35.82" height="7.16"/><rect class="cls-2" x="124.48" y="93.58" width="35.82" height="7.16"/><rect class="cls-2" x="124.48" y="82.84" width="35.82" height="7.16"/><rect class="cls-2" x="124.48" y="70.3" width="35.82" height="7.16"/></svg>