<svg id="Layer_1" data-name="Layer 1" xmlns="http://www.w3.org/2000/svg" viewBox="0 0 240 240"><defs><style>.cls-1{fill:#ccc;}.cls-2{fill:#392973;}</style></defs><title>books-cover</title><rect class="cls-1" width="240" height="240"/><rect class="cls-2" x="93.53" y="79.41" width="73.24" height="34.41" rx="1.76"/><path class="cls-2" d="M153.53,119.12v23a1.74,1.74,0,0,1-1.75,1.74H81.16a1.74,1.74,0,0,1-1.75-1.74V56.47H92.65a7.06,7.06,0,0,0,7.06-7.06V36.18h52.07a1.74,1.74,0,0,1,1.75,1.74v36.2a1.76,1.76,0,0,0,1.76,1.76h2.65a1.76,1.76,0,0,0,1.77-1.76V37.06A7.06,7.06,0,0,0,152.65,30H98.22a7,7,0,0,0-5,2.07L75.3,50a7.08,7.08,0,0,0-2.06,5v88A7.06,7.06,0,0,0,80.29,150h72.36a7.06,7.06,0,0,0,7.06-7.06V119.12a1.77,1.77,0,0,0-1.77-1.77h-2.65A1.76,1.76,0,0,0,153.53,119.12Z"/><path class="cls-1" d="M117.7,92.84a8.21,8.21,0,0,1-.45,2.72,5.69,5.69,0,0,1-1.31,2.17,9.2,9.2,0,0,1-1.15,1,7.1,7.1,0,0,1-1.38.77,9.08,9.08,0,0,1-1.65.5,10.86,10.86,0,0,1-2,.17h-2.7v6.71h-5.15V86.36h8a12.49,12.49,0,0,1,3.07.33,7.28,7.28,0,0,1,2.33,1,5.19,5.19,0,0,1,1.79,2.06A6.92,6.92,0,0,1,117.7,92.84Zm-5.28.12a2.59,2.59,0,0,0-.42-1.49,2.08,2.08,0,0,0-1-.86,4.05,4.05,0,0,0-1.4-.37c-.44,0-1,0-1.81,0h-.73v6.15h.36l1.38,0a8.93,8.93,0,0,0,1.13-.09,4.29,4.29,0,0,0,.87-.27,2.56,2.56,0,0,0,.71-.45,2.64,2.64,0,0,0,.71-1.06A4.91,4.91,0,0,0,112.42,93Z"/><path class="cls-1" d="M140.19,96.64a10.37,10.37,0,0,1-1.26,5.13,9.39,9.39,0,0,1-3.16,3.48,9,9,0,0,1-3.48,1.33,26.68,26.68,0,0,1-4,.29h-6.42V86.36h6.36a28.62,28.62,0,0,1,4.05.28A8.75,8.75,0,0,1,135.82,88a9.13,9.13,0,0,1,3.2,3.49A10.84,10.84,0,0,1,140.19,96.64Zm-5.29,0a7.84,7.84,0,0,0-.7-3.47,5.14,5.14,0,0,0-4.34-2.88c-.76,0-1.68-.06-2.74-.06H127V103h.1c1.15,0,2.13,0,2.92-.06a4.66,4.66,0,0,0,2.27-.74,5.16,5.16,0,0,0,1.93-2.2A8,8,0,0,0,134.9,96.6Z"/><path class="cls-1" d="M158.37,90.28h-8.6v3.87h7.92v3.91h-7.92v8.81h-5.13V86.36h13.73Z"/></svg>