<svg id="Layer_1" data-name="Layer 1" xmlns="http://www.w3.org/2000/svg" viewBox="0 0 240 240"><defs><style>.cls-1{fill:#ccc;}.cls-2{fill:#392973;}</style></defs><title>articles-cover</title><rect class="cls-1" width="240" height="240"/><path class="cls-2" d="M170.55,123.27H83.15a9.21,9.21,0,0,1-9.2-9.2V53.4a9.21,9.21,0,0,1,9.2-9.2h87.4a9.21,9.21,0,0,1,9.2,9.2v60.67A9.21,9.21,0,0,1,170.55,123.27ZM83.15,48.1a5.31,5.31,0,0,0-5.3,5.3v60.67a5.3,5.3,0,0,0,5.3,5.3h87.4a5.3,5.3,0,0,0,5.3-5.3V53.4a5.31,5.31,0,0,0-5.3-5.3Z"/><rect class="cls-1" x="61.7" y="58.68" width="101.9" height="75.17" rx="7.25"/><path class="cls-2" d="M156.35,135.8H69a9.21,9.21,0,0,1-9.2-9.2V65.93a9.21,9.21,0,0,1,9.2-9.2h87.4a9.21,9.21,0,0,1,9.2,9.2V126.6A9.21,9.21,0,0,1,156.35,135.8ZM69,60.63a5.3,5.3,0,0,0-5.3,5.3V126.6a5.31,5.31,0,0,0,5.3,5.3h87.4a5.31,5.31,0,0,0,5.3-5.3V65.93a5.3,5.3,0,0,0-5.3-5.3Z"/><path class="cls-2" d="M125.35,126.23a4,4,0,0,1-4-4v-24a4,4,0,0,1,5.94-3.56l22.41,12a4,4,0,0,1,0,7.11l-22.41,12A4,4,0,0,1,125.35,126.23Zm0-28.13-.07,0a.12.12,0,0,0-.07.12v24a.12.12,0,0,0,.07.12.11.11,0,0,0,.13,0l22.41-12a.13.13,0,0,0,.08-.13.13.13,0,0,0-.08-.12l-22.41-12A.08.08,0,0,0,125.35,98.1Z"/><path class="cls-2" d="M98.45,72.88H73.39a1.95,1.95,0,0,1,0-3.9H98.45a1.95,1.95,0,1,1,0,3.9Z"/><path class="cls-2" d="M139.66,85.13H114.6a1.95,1.95,0,1,1,0-3.9h25.06a2,2,0,1,1,0,3.9Z"/><path class="cls-2" d="M109.59,94.59H83.42a1.95,1.95,0,1,1,0-3.89h26.17a1.95,1.95,0,1,1,0,3.89Z"/><path class="cls-2" d="M110.14,106.84H91.77a1.95,1.95,0,1,1,0-3.89h18.37a1.95,1.95,0,1,1,0,3.89Z"/></svg>