<svg id="Layer_1" data-name="Layer 1" xmlns="http://www.w3.org/2000/svg" viewBox="0 0 240 240"><defs><style>.cls-1{fill:#fff;}</style></defs><title>plc-icon</title><path class="cls-1" d="M58.67,93.39H46.37v26h12.3q5.2,0,8-2.6a9.58,9.58,0,0,0,2.78-7.34V103.2A9.4,9.4,0,0,0,66.65,96C64.8,94.25,62.14,93.39,58.67,93.39Z"/><path class="cls-1" d="M120,.5A119.75,119.75,0,1,0,239.75,120.25,119.75,119.75,0,0,0,120,.5Zm-36,109q0,10.65-6.33,17.1t-19,6.44H46.37v27.21H32.17V79.78h26.5q12.66,0,19,6.39t6.33,17Zm62.46,50.75H100.07V79.78h14.19v66.83h32.18Zm49.62,0a48.77,48.77,0,0,1-10.35,1.18q-9.94,0-16.62-4.26a26.12,26.12,0,0,1-10-11.71,41.5,41.5,0,0,1-3.31-17V111.48a41.53,41.53,0,0,1,3.31-17,25.76,25.76,0,0,1,10-11.65q6.67-4.2,16.62-4.2a47.53,47.53,0,0,1,10,1.12,59.07,59.07,0,0,1,11.36,3.85l-4.38,12.54a71.54,71.54,0,0,0-9.11-3.2,28.35,28.35,0,0,0-7.09-.94q-8.64,0-12.42,5.44c-2.53,3.62-3.79,8.32-3.79,14.07V128.4q0,8.64,3.79,14.13t12.42,5.5a30.93,30.93,0,0,0,7.39-.94,76.33,76.33,0,0,0,9.52-3.2l4.38,12.31A62.48,62.48,0,0,1,196.06,160.22Z"/></svg>